<?xml version="1.0" encoding="UTF-8" standalone="no"?>
<!-- Uploaded to: SVG Repo, www.svgrepo.com, Generator: SVG Repo Mixer Tools -->

<svg
   width="699.92499"
   height="700.09998"
   viewBox="0 0 27.997 28.003999"
   version="1.1"
   id="svg17"
   sodipodi:docname="assembly.svg"
   inkscape:version="1.1.2 (0a00cf5339, 2022-02-04)"
   xmlns:inkscape="http://www.inkscape.org/namespaces/inkscape"
   xmlns:sodipodi="http://sodipodi.sourceforge.net/DTD/sodipodi-0.dtd"
   xmlns="http://www.w3.org/2000/svg"
   xmlns:svg="http://www.w3.org/2000/svg"
   xmlns:rdf="http://www.w3.org/1999/02/22-rdf-syntax-ns#"
   xmlns:cc="http://creativecommons.org/ns#"
   xmlns:dc="http://purl.org/dc/elements/1.1/">
  <sodipodi:namedview
     id="namedview19"
     pagecolor="#ffffff"
     bordercolor="#666666"
     borderopacity="1.0"
     inkscape:pageshadow="2"
     inkscape:pageopacity="0.0"
     inkscape:pagecheckerboard="0"
     showgrid="false"
     fit-margin-top="0"
     fit-margin-left="0"
     fit-margin-right="0"
     fit-margin-bottom="0"
     inkscape:zoom="0.7875"
     inkscape:cx="350.47619"
     inkscape:cy="350.47619"
     inkscape:window-width="1920"
     inkscape:window-height="1021"
     inkscape:window-x="0"
     inkscape:window-y="30"
     inkscape:window-maximized="1"
     inkscape:current-layer="svg17" />
  <defs
     id="defs7">
    <linearGradient
       id="a"
       x1="836.63"
       y1="36.205002"
       x2="843.802"
       y2="14.48"
       gradientTransform="matrix(-0.607,0,0,-0.607,523.922,28.249)"
       gradientUnits="userSpaceOnUse">
      <stop
         offset="0"
         stop-color="#ffffff"
         stop-opacity="0"
         id="stop2" />
      <stop
         offset="1"
         stop-color="#ffffff"
         stop-opacity="0.275"
         id="stop4" />
    </linearGradient>
  </defs>
  <title
     id="title9">file_type_assembly</title>
  <path
     d="m 14,0 c -1.246,3.056 -2,5.057 -3.391,8.022 a 21.884,21.884 0 0 0 3.591,3.134 14.858,14.858 0 0 1 -4,-2.283 C 8.43,12.579 5.646,17.855 0,28 5.186,25.006 9.012,23.352 12.691,23.034 V 22.2 h -0.834 v -0.837 h 0.834 V 22.2 h 1.675 v -1.679 h -1.675 v -0.834 h -0.834 v -1.674 h 0.834 v -0.834 h 1.675 v 0.834 H 15.2 v 0.837 h -0.837 v -0.837 h -1.672 v 1.675 h 1.675 v 0.834 H 15.2 V 22.2 h -0.837 v 0.783 c 3.98,0.1 8.006,1.772 13.634,5.021 -0.863,-1.589 -1.636,-3.021 -2.372,-4.385 A 25.526,25.526 0 0 0 20.792,20.286 14.436,14.436 0 0 1 24.65,21.8 C 17.17,7.872 16.565,6.02 14,0 Z M 8.511,17.179 h 1.671 v 0.834 h 0.837 v 5.021 H 10.182 V 20.521 H 8.511 v 2.512 H 7.673 v -5.02 H 8.51 Z m 0,0.834 v 1.675 h 1.671 v -1.675 z m 7.526,-0.834 h 0.837 v 0.834 h 0.837 v 0.837 h 0.834 v -0.837 h 0.837 v -0.834 h 0.837 v 5.855 H 19.382 V 18.85 h -0.837 v 0.837 H 17.711 V 18.85 h -0.837 v 4.184 h -0.837 z"
     style="fill:#0000bf"
     id="path11" />
  <path
     d="M 21.881,16.642 C 15.812,8.405 14.405,1.766 14.049,0.181 a 175.217,175.217 0 0 0 7.832,16.461 z"
     style="fill:#ffffff;fill-opacity:0.16568"
     id="path13" />
  <path
     d="M 14.051,0.12 13.6,1.227 c -0.159,0.391 -0.311,0.765 -0.461,1.131 -0.15,0.366 -0.3,0.724 -0.448,1.077 -0.148,0.353 -0.3,0.7 -0.448,1.053 -0.148,0.353 -0.3,0.706 -0.465,1.066 -0.165,0.36 -0.329,0.729 -0.506,1.111 C 11.095,7.047 10.91,7.443 10.711,7.858 10.683,7.915 10.65,7.981 10.622,8.039 A 21.872,21.872 0 0 0 14.2,11.156 14.879,14.879 0 0 1 10.211,8.88 l -0.14,0.287 C 10.006,9.3 9.927,9.45 9.859,9.587 L 9.753,9.806 c -0.878,1.793 -2.006,3.984 -3.524,6.822 3.551,-2 7.381,-4.887 14.338,-2.4 -0.349,-0.661 -0.67,-1.28 -0.971,-1.863 -0.301,-0.583 -0.581,-1.128 -0.841,-1.644 -0.26,-0.516 -0.5,-1 -0.725,-1.463 C 17.805,8.795 17.597,8.358 17.401,7.945 17.205,7.532 17.021,7.127 16.847,6.745 16.673,6.363 16.508,5.991 16.347,5.627 16.186,5.263 16.047,4.9 15.9,4.546 15.753,4.192 15.609,3.837 15.466,3.48 15.43,3.389 15.393,3.294 15.357,3.203 14.949,2.247 14.536,1.258 14.051,0.12 Z"
     style="fill:url(#a)"
     id="path15" />
  <metadata
     id="metadata836">
    <rdf:RDF>
      <cc:Work
         rdf:about="">
        <dc:title>file_type_assembly</dc:title>
      </cc:Work>
    </rdf:RDF>
  </metadata>
</svg>
