<?xml version="1.0" encoding="UTF-8" standalone="no"?>
<!-- Uploaded to: SVG Repo, www.svgrepo.com, Generator: SVG Repo Mixer Tools -->

<svg
   width="699.60394"
   height="598.82501"
   viewBox="0 0 27.984158 23.953"
   version="1.1"
   id="svg6"
   sodipodi:docname="cobol.svg"
   inkscape:version="1.1.2 (0a00cf5339, 2022-02-04)"
   xmlns:inkscape="http://www.inkscape.org/namespaces/inkscape"
   xmlns:sodipodi="http://sodipodi.sourceforge.net/DTD/sodipodi-0.dtd"
   xmlns="http://www.w3.org/2000/svg"
   xmlns:svg="http://www.w3.org/2000/svg"
   xmlns:rdf="http://www.w3.org/1999/02/22-rdf-syntax-ns#"
   xmlns:cc="http://creativecommons.org/ns#"
   xmlns:dc="http://purl.org/dc/elements/1.1/">
  <defs
     id="defs10" />
  <sodipodi:namedview
     id="namedview8"
     pagecolor="#ffffff"
     bordercolor="#666666"
     borderopacity="1.0"
     inkscape:pageshadow="2"
     inkscape:pageopacity="0.0"
     inkscape:pagecheckerboard="0"
     showgrid="false"
     fit-margin-top="0"
     fit-margin-left="0"
     fit-margin-right="0"
     fit-margin-bottom="0"
     inkscape:zoom="0.7875"
     inkscape:cx="298.4127"
     inkscape:cy="199.36508"
     inkscape:window-width="1920"
     inkscape:window-height="1021"
     inkscape:window-x="0"
     inkscape:window-y="30"
     inkscape:window-maximized="1"
     inkscape:current-layer="svg6" />
  <title
     id="title2">file_type_cobol</title>
  <path
     d="m 20.217158,2.522 a 4.449,4.449 0 0 0 1.765,-2.522 4.636,4.636 0 0 1 -0.018,2.157 c -0.223,0.582 -0.567,1.107 -0.834,1.669 a 21.772,21.772 0 0 1 4.559,-2.938 c -0.482,1.488 -1.821,2.388 -2.805,3.53 0.19,0.409 0.28,0.989 0.8,1.109 a 5.036,5.036 0 0 0 2.5,0.155 c 0.912,-0.313 1.345,-1.258 1.8,-2.035 v 1.469 a 15.738,15.738 0 0 1 -0.582,1.748 c 0.2,0.547 0.409,1.092 0.582,1.647 v 0.952 c -0.214,0.368 -0.442,0.726 -0.663,1.089 a 5.293,5.293 0 0 0 -1.068,-1.162 4.03,4.03 0 0 0 -1.851,-0.125 3.212,3.212 0 0 0 2.413,1.47 c -0.359,0.37 -0.663,0.912 -1.23,0.969 -1.641,0.247 -3.207,-0.505 -4.839,-0.5 -0.282,0.02 -0.707,0.024 -0.785,0.372 0,0.735 0.217,1.453 0.19,2.188 -0.059,1.258 -0.512,2.466 -0.529,3.726 a 13.785,13.785 0 0 0 0.838,3.448 c -0.523,-0.077 -1.044,-0.166 -1.562,-0.26 -0.1,0.208 -0.184,0.42 -0.26,0.634 a 4.514,4.514 0 0 0 1.139,1.195 c -0.061,0.127 -0.182,0.381 -0.241,0.508 l -0.573,0.138 c -0.131,0.247 -0.263,0.492 -0.4,0.739 a 4.421,4.421 0 0 0 -2.2,0.061 c -0.466,-0.186 -0.928,-0.376 -1.389,-0.567 a 5.939,5.939 0 0 0 0.407,-2.315 c -0.282,-0.982 -1.6,-0.984 -2,-1.877 a 6.233,6.233 0 0 1 -1.022,-2.851 c -0.823,-0.433 -1.455,-1.221 -2.4000004,-1.4 -0.048,0.409 -0.083,0.82 -0.153,1.227 a 6.015,6.015 0 0 1 -1.348,2.406 c 0.039,0.422 0.079,0.842 0.12,1.265 0.346,0.324 0.691,0.648 1.033,0.974 a 9.752,9.752 0 0 1 -1.426,0.713 11.114,11.114 0 0 1 -1.687,0.077 c -0.258,-0.254 -0.518,-0.508 -0.777,-0.764 a 4.871,4.871 0 0 0 0.114,-2.608 c 0.171,-0.4 0.326,-0.812 0.475,-1.221 a 5.565,5.565 0 0 1 -3.01,0.206 5.12,5.12 0 0 1 -3.29000003,-4.33 3.859,3.859 0 0 1 1.40700003,-3.268 6.41,6.41 0 0 0 -0.24,2.615 3.038,3.038 0 0 0 2.5,2.466 3.462,3.462 0 0 0 1.96,-0.643 7.48,7.48 0 0 1 0.363,-4.133 5.524,5.524 0 0 1 3.586,-2.66 4.235,4.235 0 0 0 2.0110004,-1.566 10.67,10.67 0 0 1 1.529,-1.33 c -0.228,-0.219 -0.453,-0.44 -0.68,-0.659 a 2.154,2.154 0 0 0 1.431,-1.711 c 1.284,-0.3 2.551,-0.661 3.82,-1.011 a 3.793,3.793 0 0 0 1.415,0.606 c 0.317,0.346 0.494,1.157 1.1,0.928 m -3.777,13.362 c 0.042,0.768 -0.048,1.665 0.674,2.155 0,-0.755 -0.046,-1.507 -0.1,-2.26 z"
     style="fill:#005ca5"
     id="path4" />
  <metadata
     id="metadata829">
    <rdf:RDF>
      <cc:Work
         rdf:about="">
        <dc:title>file_type_cobol</dc:title>
      </cc:Work>
    </rdf:RDF>
  </metadata>
</svg>
