<?xml version="1.0" encoding="UTF-8" standalone="no"?>
<svg
   viewBox="0 0 114.22124 82.449998"
   version="1.1"
   id="svg8"
   sodipodi:docname="docker.svg"
   width="114.22124"
   height="82.449997"
   inkscape:version="1.1.2 (0a00cf5339, 2022-02-04)"
   xmlns:inkscape="http://www.inkscape.org/namespaces/inkscape"
   xmlns:sodipodi="http://sodipodi.sourceforge.net/DTD/sodipodi-0.dtd"
   xmlns="http://www.w3.org/2000/svg"
   xmlns:svg="http://www.w3.org/2000/svg"
   xmlns:rdf="http://www.w3.org/1999/02/22-rdf-syntax-ns#"
   xmlns:cc="http://creativecommons.org/ns#"
   xmlns:dc="http://purl.org/dc/elements/1.1/">
  <defs
     id="defs12" />
  <sodipodi:namedview
     id="namedview10"
     pagecolor="#ffffff"
     bordercolor="#666666"
     borderopacity="1.0"
     inkscape:pageshadow="2"
     inkscape:pageopacity="0.0"
     inkscape:pagecheckerboard="0"
     showgrid="false"
     fit-margin-top="0"
     fit-margin-left="0"
     fit-margin-right="0"
     fit-margin-bottom="0"
     inkscape:zoom="1.9237885"
     inkscape:cx="224.55691"
     inkscape:cy="101.3625"
     inkscape:window-width="1920"
     inkscape:window-height="1021"
     inkscape:window-x="0"
     inkscape:window-y="30"
     inkscape:window-maximized="1"
     inkscape:current-layer="svg8" />
  <title
     id="title2">Docker logo</title>
  <path
     d="m 111.90124,31.47 c -2.57,-1.79 -8.47,-2.45 -13.080005,-1.56 -0.54,-4.46 -3,-8.37 -7.29,-11.83 l -2.47,-1.79 -1.72,2.57 a 21.15,21.15 0 0 0 -2.89,12.5 14.91,14.91 0 0 0 2.25,6.81 17.87,17.87 0 0 1 -8.68,2 H 0.51123527 l -0.21,0.89 c -0.75,4.46 -0.75,18.41 8.00000003,29.12 6.6499997,8.15 16.5099997,12.27 29.4799997,12.27 28.09,0 48.89,-13.5 58.64,-37.94 3.860005,0.11 12.110005,0 16.300005,-8.37 0.11,-0.22 0.32,-0.67 1.07,-2.34 l 0.43,-0.89 -2.36,-1.45 z M 62.471235,0 h -11.79 v 11.16 h 11.79 z m 0,13.39 h -11.79 v 11.16 h 11.79 z m -13.94,0 h -11.79 v 11.16 h 11.79 z m -13.94,0 h -11.78 v 11.16 h 11.79 V 13.39 Z m -13.94,13.39 H 8.8712353 V 37.94 H 20.661235 V 26.78 Z m 13.94,0 h -11.78 v 11.16 h 11.79 V 26.78 Z m 13.94,0 h -11.79 v 11.16 h 11.79 z m 13.94,0 h -11.79 v 11.16 h 11.79 z m 13.94,0 h -11.79 v 11.16 h 11.79 z"
     style="fill:#2496ed"
     id="path6" />
  <metadata
     id="metadata829">
    <rdf:RDF>
      <cc:Work
         rdf:about="">
        <dc:title>Docker logo</dc:title>
      </cc:Work>
    </rdf:RDF>
  </metadata>
</svg>
