<?xml version="1.0" encoding="UTF-8" standalone="no"?>
<svg
   viewBox="0 0 32 18.565159"
   width="64"
   height="37.130318"
   version="1.1"
   id="svg4"
   sodipodi:docname="expressjs.svg"
   inkscape:version="1.1.2 (0a00cf5339, 2022-02-04)"
   xmlns:inkscape="http://www.inkscape.org/namespaces/inkscape"
   xmlns:sodipodi="http://sodipodi.sourceforge.net/DTD/sodipodi-0.dtd"
   xmlns="http://www.w3.org/2000/svg"
   xmlns:svg="http://www.w3.org/2000/svg">
  <defs
     id="defs8" />
  <sodipodi:namedview
     id="namedview6"
     pagecolor="#ffffff"
     bordercolor="#666666"
     borderopacity="1.0"
     inkscape:pageshadow="2"
     inkscape:pageopacity="0.0"
     inkscape:pagecheckerboard="0"
     showgrid="false"
     fit-margin-top="0"
     fit-margin-left="0"
     fit-margin-right="0"
     fit-margin-bottom="0"
     inkscape:zoom="9.84375"
     inkscape:cx="32"
     inkscape:cy="18.590476"
     inkscape:window-width="1920"
     inkscape:window-height="1021"
     inkscape:window-x="0"
     inkscape:window-y="30"
     inkscape:window-maximized="1"
     inkscape:current-layer="svg4" />
  <path
     d="m 32,18.083705 c -1.164,0.296 -1.884,0.013 -2.53,-0.957 l -4.594,-6.356 -0.664,-0.88 -5.365,7.257 c -0.613,0.873 -1.256,1.253 -2.4,0.944 l 6.87,-9.222 -6.396,-8.32999999 c 1.1,-0.214 1.86,-0.105 2.535,0.87999999 l 4.765,6.435 4.8,-6.4 c 0.615,-0.87299999 1.276,-1.20499999 2.38,-0.88299999 l -2.48,3.28799999 -3.36,4.375 c -0.4,0.5 -0.345,0.842 0.023,1.325 z m -31.992,-9.368 0.562,-2.764 c 1.53,-5.46999999 7.8,-7.743 12.124,-4.363 2.527,1.988 3.155,4.8 3.03,7.95 H 1.48 c -0.214,5.67 3.867,9.092 9.07,7.346 1.825,-0.613 2.9,-2.042 3.438,-3.83 0.273,-0.896 0.725,-1.036 1.567,-0.78 -0.43,2.236 -1.4,4.104 -3.45,5.273 -3.063,1.75 -7.435,1.184 -9.735,-1.248 -1.37,-1.411 -1.936,-3.199 -2.19,-5.111 -0.04,-0.316 -0.12,-0.617 -0.18,-0.92 q 0.008,-0.776 0.008,-1.552 z m 1.498,-0.38 h 12.872 c -0.084,-4.1 -2.637,-7.012 -6.126,-7.037 -3.83,-0.03 -6.58,2.813 -6.746,7.037 z"
     id="path2" />
</svg>
