<?xml version="1.0" encoding="UTF-8" standalone="no"?>
<svg
   version="1.1"
   height="119.04175"
   width="244.76842"
   id="svg134"
   sodipodi:docname="jquery.svg"
   inkscape:version="1.1.2 (0a00cf5339, 2022-02-04)"
   xmlns:inkscape="http://www.inkscape.org/namespaces/inkscape"
   xmlns:sodipodi="http://sodipodi.sourceforge.net/DTD/sodipodi-0.dtd"
   xmlns="http://www.w3.org/2000/svg"
   xmlns:svg="http://www.w3.org/2000/svg">
  <defs
     id="defs138" />
  <sodipodi:namedview
     id="namedview136"
     pagecolor="#ffffff"
     bordercolor="#666666"
     borderopacity="1.0"
     inkscape:pageshadow="2"
     inkscape:pageopacity="0.0"
     inkscape:pagecheckerboard="0"
     showgrid="false"
     fit-margin-top="0"
     fit-margin-left="0"
     fit-margin-right="0"
     fit-margin-bottom="0"
     inkscape:zoom="1.1917721"
     inkscape:cx="254.24323"
     inkscape:cy="152.71376"
     inkscape:window-width="1920"
     inkscape:window-height="1021"
     inkscape:window-x="0"
     inkscape:window-y="30"
     inkscape:window-maximized="1"
     inkscape:current-layer="svg134" />
  <path
     fill-rule="nonzero"
     fill="#131b28"
     d="m 220.17486,36.96265 0.001,-0.005 c 0,0 -3.352,11.88 -3.352,11.88 0,0 3.3508,-11.875 3.3508,-11.875 z"
     id="path2" />
  <path
     fill-rule="nonzero"
     fill="#131b28"
     d="m 237.41486,62.75365 c 0,0 -3.6938,-0.022 -3.6938,-0.022 0,0 3.6938,0.022 3.6938,0.022 z"
     id="path4" />
  <path
     fill-rule="nonzero"
     fill="#131b28"
     d="m 236.46486,80.49465 h 0.004 c 0,0 -22.131,0.0806 -22.131,0.0806 0,0 22.128,-0.0806 22.128,-0.0806 z"
     id="path6" />
  <path
     fill-rule="nonzero"
     fill="#131b28"
     d="m 241.10486,62.77565 c 0,0 -3.6951,-0.022 -3.6951,-0.022 0,0 3.6951,0.022 3.6951,0.022 z"
     id="path8" />
  <path
     fill-rule="nonzero"
     fill="#131b28"
     d="m 238.40486,78.98665 c 0,0 3.855,-14.702 3.855,-14.702 0,0 -3.855,14.705 -3.855,14.705 v -0.002 z"
     id="path10" />
  <path
     fill-rule="nonzero"
     fill="#131b28"
     d="m 125.63486,54.20865 c 0,0 2.3852,-10.574 2.3852,-10.574 0,0 -2.727,12.087 -2.727,12.087 0,0 -2.6172,12.312 -2.6172,12.312 0,0 2.2937,-10.793 2.2937,-10.793 0.177,-0.83497 0.4773,-2.1997 0.66529,-3.0322 z"
     id="path52" />
  <path
     fill-rule="nonzero"
     fill="#131b28"
     d="m 150.51486,33.06365 v -0.002 c 0,0 -4.9463,22.883 -4.9463,22.883 0,0 4.9463,-22.881 4.9463,-22.881 z"
     id="path56" />
  <path
     fill-rule="nonzero"
     fill="#131b28"
     d="m 101.52486,108.88165 c 0,0 8.501,0.10988 13.905,0.10988 -4.1052,0 -10.885,-0.0756 -13.912,-0.11225 0.003,0 0.005,0.002 0.008,0.002 z"
     id="path58" />
  <path
     fill-rule="nonzero"
     fill="#131b28"
     d="m 130.40486,33.06065 c 0,0 -2.3877,10.574 -2.3877,10.574 0,0 2.3877,-10.574 2.3877,-10.574 z"
     id="path60" />
  <path
     fill-rule="nonzero"
     fill="#0868ac"
     d="m 84.25336,21.30065 c -8.335,11.98 -7.2974,27.566 -0.93018,40.295 0.15138,0.30518 0.31006,0.60546 0.46631,0.90576 0.10012,0.19043 0.19409,0.38574 0.29785,0.57373 0.05862,0.11225 0.1245,0.22216 0.18555,0.32959 0.10862,0.20263 0.21972,0.39551 0.33202,0.59326 0.19776,0.34912 0.4004,0.6958 0.60791,1.0425 0.11475,0.19042 0.22828,0.38085 0.34669,0.57128 0.22949,0.37109 0.46509,0.7373 0.70556,1.1035 0.10012,0.15625 0.19775,0.3125 0.30029,0.46386 0.33204,0.49561 0.67139,0.98877 1.0217,1.4746 0.0087,0.0125 0.01825,0.0269 0.02925,0.039 0.055,0.0781 0.116,0.15381 0.17212,0.23194 0.30274,0.41747 0.61524,0.83007 0.9314,1.2378 0.116,0.14892 0.23315,0.29785 0.35034,0.44677 0.28199,0.35401 0.56885,0.70558 0.8606,1.0571 0.10862,0.13184 0.2185,0.26366 0.32836,0.39306 0.39185,0.46143 0.79101,0.92041 1.1987,1.3696 0.008,0.007 0.0171,0.0171 0.0244,0.0244 0.0171,0.0195 0.0318,0.0317 0.0464,0.0512 0.39795,0.43457 0.80566,0.85937 1.2183,1.2842 0.12816,0.13184 0.25879,0.26368 0.39062,0.39308 0.31982,0.32226 0.64452,0.63965 0.9729,0.95458 0.13305,0.12695 0.26489,0.25635 0.39795,0.37842 0.43822,0.4126 0.88134,0.81787 1.333,1.2134 0.008,0.007 0.0134,0.0125 0.0208,0.0171 0.0769,0.0684 0.15625,0.13184 0.23194,0.19775 0.39795,0.34424 0.80322,0.68604 1.2109,1.023 0.16601,0.13428 0.33448,0.26612 0.50171,0.40039 0.33325,0.26611 0.67016,0.52979 1.0095,0.78858 0.17945,0.13672 0.35889,0.27343 0.53956,0.41016 0.37475,0.27587 0.75195,0.54687 1.1328,0.81299 0.13915,0.10012 0.27344,0.19775 0.41259,0.29296 0.039,0.0269 0.0745,0.0537 0.1135,0.0806 0.36134,0.24902 0.7312,0.48827 1.0999,0.72754 0.15869,0.105 0.31616,0.21483 0.47608,0.31737 0.5664,0.35889 1.1414,0.7129 1.7224,1.0547 0.15746,0.0904 0.31738,0.17822 0.47606,0.26856 0.42725,0.24658 0.85694,0.48828 1.2927,0.7251 0.2356,0.12695 0.4773,0.24658 0.71534,0.36865 0.30761,0.16113 0.61279,0.3247 0.92529,0.48095 0.0707,0.0343 0.14405,0.0684 0.21362,0.1025 0.12574,0.061 0.25269,0.11963 0.37842,0.18311 0.48461,0.23194 0.9729,0.45899 1.4661,0.67872 0.105,0.0464 0.2063,0.0928 0.31006,0.13916 0.56518,0.24657 1.1352,0.48339 1.7102,0.71045 0.13794,0.0561 0.2771,0.10987 0.41626,0.16356 0.53222,0.20509 1.0718,0.40773 1.6138,0.59815 0.0684,0.0244 0.13429,0.0464 0.20264,0.0707 0.59449,0.20753 1.1951,0.40039 1.7993,0.58838 0.14404,0.0415 0.2893,0.0879 0.43456,0.1294 0.61524,0.18555 1.2232,0.40771 1.8579,0.5249 40.31,7.3511 52.019,-24.224 52.019,-24.224 -9.834,12.812 -27.29,16.191 -43.829,12.429 -0.62622,-0.1416 -1.2341,-0.33691 -1.8457,-0.51758 -0.15504,-0.0464 -0.30762,-0.0927 -0.46021,-0.13916 -0.59692,-0.1831 -1.189,-0.37597 -1.7773,-0.57861 -0.0806,-0.0292 -0.16236,-0.0586 -0.24415,-0.0879 -0.52734,-0.18555 -1.0486,-0.38086 -1.5674,-0.58105 -0.14649,-0.0586 -0.29298,-0.11475 -0.43945,-0.17334 -0.56885,-0.22461 -1.134,-0.45899 -1.6919,-0.70312 -0.11475,-0.0489 -0.22461,-0.10013 -0.33814,-0.14894 -0.47974,-0.21728 -0.95459,-0.437 -1.427,-0.66406 -0.13671,-0.0659 -0.27344,-0.12939 -0.4126,-0.19775 -0.371,-0.181 -0.738,-0.374 -1.104,-0.562 -0.245,-0.129 -0.494,-0.251 -0.737,-0.386 -0.447,-0.239 -0.886,-0.488 -1.323,-0.742 -0.148,-0.083 -0.298,-0.163 -0.447,-0.249 -0.581,-0.342 -1.155,-0.696 -1.723,-1.055 -0.157,-0.1 -0.31,-0.207 -0.465,-0.31 -0.412,-0.266 -0.822,-0.537 -1.226,-0.815 -0.134,-0.091 -0.263,-0.188 -0.395,-0.278 -0.39,-0.276 -0.776,-0.555 -1.159,-0.838 -0.174,-0.129 -0.345,-0.259 -0.514,-0.388 -0.351,-0.269 -0.7,-0.54 -1.046,-0.818 -0.15625,-0.1245 -0.3125,-0.24902 -0.46631,-0.37354 -0.43945,-0.36132 -0.87402,-0.7251 -1.3025,-1.0986 -0.0451,-0.039 -0.094,-0.0781 -0.14282,-0.11963 -0.46386,-0.40771 -0.91919,-0.8252 -1.3696,-1.2451 -0.13062,-0.1245 -0.25758,-0.24659 -0.38575,-0.3711 -0.33325,-0.31738 -0.66161,-0.6372 -0.98389,-0.96435 -0.12939,-0.1294 -0.25879,-0.25635 -0.38574,-0.38575 -0.41015,-0.41991 -0.81299,-0.84473 -1.2073,-1.2768 -0.0195,-0.022 -0.0403,-0.0415 -0.0597,-0.0635 -0.41749,-0.45655 -0.8252,-0.92285 -1.2244,-1.394 -0.10862,-0.12939 -0.21362,-0.2539 -0.32105,-0.38085 -0.29785,-0.35889 -0.59326,-0.72266 -0.88135,-1.0889 -0.108,-0.132 -0.216,-0.267 -0.323,-0.403 -0.347,-0.45 -0.686,-0.899 -1.018,-1.355 -9.1823,-12.525 -12.481,-29.8 -5.142,-43.987"
     id="path94" />
  <path
     fill-rule="nonzero"
     fill="#0868ac"
     d="m 110.12686,11.20765 c -6.0278,8.6743 -5.7007,20.286 -0.99854,29.46 0.78858,1.5381 1.6748,3.0298 2.666,4.4507 0.90331,1.2939 1.9043,2.8345 3.103,3.8745 0.43458,0.47852 0.88868,0.94482 1.3525,1.4038 0.11712,0.11963 0.23681,0.23438 0.35645,0.35157 0.45044,0.43701 0.9082,0.8667 1.3818,1.2842 0.0195,0.0146 0.0366,0.0341 0.0561,0.0489 0.005,0.005 0.01,0.007 0.0134,0.0125 0.52368,0.45899 1.0644,0.90089 1.6138,1.3354 0.12212,0.0927 0.24292,0.19044 0.36621,0.28565 0.55054,0.42237 1.1121,0.8374 1.6882,1.2329 0.0171,0.0125 0.0318,0.0244 0.0489,0.0366 0.25391,0.17578 0.5127,0.33936 0.77026,0.50781 0.12325,0.0806 0.24049,0.16602 0.365,0.2417 0.41138,0.26367 0.82762,0.52002 1.2512,0.7666 0.0599,0.0366 0.11838,0.0684 0.177,0.1025 0.365,0.20995 0.73486,0.41747 1.106,0.61767 0.12939,0.0732 0.26122,0.13672 0.39306,0.20508 0.25635,0.13427 0.5127,0.271 0.77392,0.40039 0.039,0.0195 0.0794,0.0366 0.11712,0.0538 0.53101,0.26122 1.0669,0.5127 1.6138,0.75195 0.11712,0.0513 0.23804,0.0976 0.35644,0.14648 0.43701,0.18555 0.87891,0.36622 1.3232,0.53712 0.18799,0.0708 0.37841,0.13916 0.5664,0.20751 0.40284,0.14892 0.80689,0.28565 1.2146,0.42236 0.18432,0.0586 0.365,0.11963 0.54932,0.17579 0.57982,0.18066 1.1523,0.40771 1.7566,0.50781 31.123,5.1562 38.308,-18.806 38.308,-18.806 -6.477,9.3286 -19.02,13.779 -32.405,10.305 -0.59449,-0.15625 -1.1804,-0.32715 -1.7627,-0.51027 -0.17822,-0.0537 -0.35279,-0.11225 -0.52979,-0.17088 -0.41381,-0.13429 -0.82519,-0.27589 -1.2329,-0.42482 -0.18676,-0.0684 -0.37352,-0.13671 -0.55664,-0.20751 -0.44678,-0.1709 -0.88868,-0.34912 -1.3269,-0.53467 -0.11962,-0.0513 -0.24049,-0.0976 -0.35768,-0.15137 -0.54931,-0.23926 -1.0901,-0.49072 -1.6235,-0.7544 -0.27466,-0.13427 -0.54444,-0.27587 -0.81421,-0.41503 -0.15625,-0.0805 -0.31372,-0.16113 -0.46998,-0.2417 -0.34668,-0.18799 -0.69091,-0.3833 -1.0303,-0.58105 -0.0805,-0.0464 -0.16479,-0.0904 -0.24658,-0.13917 -0.42115,-0.24658 -0.83619,-0.50048 -1.2476,-0.76171 -0.12695,-0.0806 -0.24902,-0.16846 -0.37598,-0.25147 -0.271,-0.17578 -0.54199,-0.354 -0.8081,-0.53467 -0.57374,-0.39551 -1.1316,-0.81055 -1.6821,-1.2305 -0.12695,-0.10013 -0.2539,-0.19775 -0.37841,-0.29785 -5.859,-4.626 -10.503,-10.947 -12.711,-18.115 -2.314,-7.434 -1.815,-15.779 2.194,-22.551"
     id="path96" />
  <path
     fill-rule="nonzero"
     fill="#0868ac"
     d="m 131.88786,3.66665 c -3.5535,5.2295 -3.9026,11.724 -1.4368,17.5 2.6001,6.1304 7.9285,10.94 14.147,13.22 0.25635,0.0953 0.5127,0.18066 0.77271,0.26855 0.1135,0.0342 0.22582,0.0733 0.34058,0.10737 0.36621,0.11475 0.72998,0.24903 1.1084,0.31983 17.185,3.3203 21.846,-8.8184 23.087,-10.605 -4.0832,5.8789 -10.945,7.29 -19.364,5.2466 -0.665,-0.162 -1.396,-0.402 -2.037,-0.629 -0.822,-0.293 -1.632,-0.627 -2.419,-1.005 -1.495,-0.718 -2.92,-1.59 -4.241,-2.588 -7.534,-5.716 -12.214,-16.621 -7.298,-25.502"
     id="path98" />
  <path
     fill-rule="nonzero"
     fill="#0868ac"
     d="m 19.43486,105.52165 c 0,0 -4.9536,11.282 -4.9536,11.282 h -5.4688 c 0,0 0.448,-10.251 0.448,-10.251 0,0 -4.0259,10.251 -4.0259,10.251 h -5.2954 c 0,0 -0.13916,-11.282 -0.13916,-11.282 0,0 0.58471,-2.7856 0.58471,-2.7856 h 3.75 c 0,0 -0.72264,11.143 -0.72264,11.143 0,0 4.1626,-11.143 4.1626,-11.143 h 5.2283 c 0,0 -0.37841,11.282 -0.37841,11.282 0,0 4.1284,-11.282 4.1284,-11.282 h 3.2666 c 0,0 -0.58471,2.7856 -0.58471,2.7856 z"
     id="path100" />
  <path
     fill-rule="nonzero"
     fill="#0868ac"
     d="m 28.06486,108.86165 c 0.48217,-2.2022 0.34424,-2.6148 -0.79103,-2.6148 h -1.72 c 0,0 -1.1011,5.1611 -1.1011,5.1611 0,0 -1.6858,5.398 -1.6858,5.398 h -3.1982 c 0,0 2.6135,-12.244 2.6135,-12.244 0,0 0.37964,-1.7896 0.37964,-1.7896 h 2.9236 c 0,0 0.37841,0.82518 0.37841,0.82518 0,0 1.6858,-0.99608 3.335,-0.99608 3.5095,0 3.2348,2.6465 2.4768,6.2598 h -3.6108 z"
     id="path102" />
  <path
     fill-rule="nonzero"
     fill="#0868ac"
     d="m 38.45486,100.98165 c -1.4087,0 -2.3035,-0.4126 -1.9604,-2.1314 0.37841,-1.7212 1.4795,-2.1338 2.854,-2.1338 1.3782,0 2.3059,0.41259 1.9275,2.1338 -0.34424,1.6846 -1.4441,2.1314 -2.821,2.1314 z m -1.5124,15.823 h -3.1665 c 0,0 0.62011,-5.5029 0.62011,-5.5029 0,0 1.1011,-5.0903 1.1011,-5.0903 0,0 -2.2009,-0.4834 -2.2009,-0.4834 0,0 0.6189,-2.9907 0.6189,-2.9907 h 6.0181 c 0,0 -2.9907,14.067 -2.9907,14.067 z"
     id="path104" />
  <path
     fill-rule="nonzero"
     fill="#0868ac"
     d="m 50.66486,105.72165 c 0,0 -3.9551,0.4834 -3.9551,0.4834 0,0 -1.1365,5.3662 -1.1365,5.3662 -0.31005,1.4795 -0.31005,1.8921 0.99853,1.8921 h 2.6477 c 0,0 -0.55054,2.8198 -0.55054,2.8198 0,0 -2.406,0.72265 -3.4399,0.72265 -4.0588,0 -4.0247,-2.2363 -3.3008,-5.5737 0,0 1.1011,-5.2612 1.1011,-5.2612 0,0 -2.2022,-0.48096 -2.2022,-0.48096 0,0 0.65308,-2.9932 0.65308,-2.9932 h 2.3059 c 0,0 1.3074,-3.5449 1.3074,-3.5449 h 3.1299 c 0,0 -0.75805,3.5449 -0.75805,3.5449 h 3.8525 c 0,0 -0.65308,3.0249 -0.65308,3.0249 z"
     id="path106" />
  <path
     fill-rule="nonzero"
     fill="#0868ac"
     d="m 58.88486,105.90165 c -1.8567,0 -2.821,0.96436 -3.1982,2.6831 0,0 5.2966,-0.44677 5.2966,-0.44677 0.24048,-1.1694 0,-2.2363 -2.0984,-2.2363 z m -3.7134,5.227 c -0.24293,1.7212 0.41138,2.3047 2.6123,2.3047 h 5.5371 c 0,0 -0.54933,2.6148 -0.54933,2.6148 0,0 -3.3362,0.92774 -5.813,0.92774 -6.1572,0 -6.2268,-3.4717 -5.4346,-7.1875 0.791,-3.6475 2.2009,-7.2559 8.1506,-7.2559 5.7459,0 6.0217,3.4717 4.6106,8.5962 h -9.1138 z"
     id="path108" />
  <path
     fill-rule="nonzero"
     fill="#0868ac"
     d="m 76.90486,116.80165 h -3.1628 c 0,0 0.61888,-5.5029 0.61888,-5.5029 0,0 2.2363,-10.457 2.2363,-10.457 0,0 -2.2034,-0.51514 -2.2034,-0.51514 0,0 0.65431,-2.9932 0.65431,-2.9932 h 6.0205 c 0,0 -4.1638,19.468 -4.1638,19.468 z"
     id="path110" />
  <path
     fill-rule="nonzero"
     fill="#0868ac"
     d="m 88.33486,105.90165 c -1.8591,0 -2.821,0.96436 -3.2007,2.6831 0,0 5.2978,-0.44677 5.2978,-0.44677 0.23925,-1.1694 0,-2.2363 -2.0972,-2.2363 z m -3.7158,5.227 c -0.24049,1.7212 0.41381,2.3047 2.6135,2.3047 h 5.5383 c 0,0 -0.55054,2.6148 -0.55054,2.6148 0,0 -3.3374,0.92774 -5.8142,0.92774 -6.1572,0 -6.2244,-3.4717 -5.4334,-7.1875 0.79222,-3.6475 2.2021,-7.2559 8.1519,-7.2559 5.7446,0 6.0193,3.4717 4.6106,8.5962 h -9.1162 z"
     id="path112" />
  <path
     fill-rule="nonzero"
     fill="#0868ac"
     d="m 108.24486,106.07165 c 0,0 -4.0246,0.0343 -5.1245,0.0343 -2.3401,0 -2.5806,0.72021 -2.7515,1.477 0,0 -0.13915,0.68847 -0.13915,0.68847 0,0 7.4304,0.55177 7.4304,0.55177 0,0 0.0341,2.373 -0.27587,3.7134 -0.44677,2.2363 -2.7515,4.5044 -6.9128,4.5044 -2.0654,0 -5.4016,-0.78857 -5.4016,-0.78857 0,0 0.58471,-2.7173 0.58471,-2.7173 h 5.1257 c 2.2705,0 2.5806,-0.62013 2.7197,-1.2378 0,0 0.17088,-0.89355 0.17088,-0.89355 0,0 -7.2925,-0.55176 -7.2925,-0.55176 0,0 -0.27466,-1.8237 0.1025,-3.645 0.55176,-2.478 2.8198,-4.6094 6.9824,-4.6094 2.0642,0 5.4004,0.75439 5.4004,0.75439 0,0 -0.6189,2.7197 -0.6189,2.7197 z"
     id="path114" />
  <path
     fill-rule="nonzero"
     fill="#0868ac"
     d="m 122.07486,106.07165 c 0,0 -4.0234,0.0343 -5.1245,0.0343 -2.3389,0 -2.5793,0.72021 -2.7515,1.477 0,0 -0.13917,0.68847 -0.13917,0.68847 0,0 7.4316,0.55177 7.4316,0.55177 0,0 0.0341,2.373 -0.27587,3.7134 -0.44678,2.2363 -2.7515,4.5044 -6.9141,4.5044 -2.063,0 -5.4004,-0.78857 -5.4004,-0.78857 0,0 0.58471,-2.7173 0.58471,-2.7173 h 5.1257 c 2.2693,0 2.5793,-0.62013 2.7185,-1.2378 0,0 0.1709,-0.89355 0.1709,-0.89355 0,0 -7.2925,-0.55176 -7.2925,-0.55176 0,0 -0.27465,-1.8237 0.1025,-3.645 0.55175,-2.478 2.8198,-4.6094 6.9836,-4.6094 2.063,0 5.3992,0.75439 5.3992,0.75439 0,0 -0.6189,2.7197 -0.6189,2.7197 z"
     id="path116" />
  <path
     fill-rule="nonzero"
     fill="#0868ac"
     d="m 126.40486,119.04165 h -2.7502 c 0,0 0.1025,-2.0654 0.1025,-2.0654 -0.99854,-0.0659 -1.5137,-0.78858 -1.2732,-1.9946 0.37842,-1.7188 1.4453,-2.1313 2.8552,-2.1313 1.3757,0 2.3022,0.41259 1.9263,2.1313 0,0 -0.8606,4.0601 -0.8606,4.0601 z"
     id="path118" />
  <path
     fill-rule="nonzero"
     fill="#0868ac"
     d="m 144.80486,106.21165 c -2.063,0 -2.7844,1.2378 -3.2666,3.5083 -0.48218,2.2705 -0.34424,3.6108 1.7188,3.6108 h 2.8552 c 0,0 1.5832,-7.1191 1.5832,-7.1191 z m 4.7131,8.7695 c 0,0 -0.37964,1.8237 -0.37964,1.8237 0,0 -2.887,-0.0341 -2.887,-0.0341 0,0 -0.41381,-0.89356 -0.41381,-0.89356 0,0 -2.5464,1.0986 -4.2639,1.0986 -4.4043,0 -4.6106,-3.6108 -3.8196,-7.2559 0.79102,-3.7158 2.511,-7.2241 6.8799,-7.2241 1.5832,0 3.7146,0.79102 3.7146,0.79102 0,0 1.7542,-5.9497 1.7542,-5.9497 h 3.1653 c 0,0 -3.75,17.644 -3.75,17.644 z"
     id="path120" />
  <path
     fill-rule="nonzero"
     fill="#0868ac"
     d="m 160.90486,106.07165 c -2.6819,0 -3.5437,1.5112 -4.0247,3.7134 -0.44677,2.2363 -0.23925,3.75 2.4072,3.75 2.7527,0 3.5791,-1.4795 4.0588,-3.75 0.48339,-2.1338 0.34424,-3.7134 -2.4414,-3.7134 z m -2.3376,10.938 c -5.6763,0 -6.1243,-3.5425 -5.3674,-7.2241 0.79224,-3.6792 2.7869,-7.1875 8.4631,-7.1875 5.6396,0 6.1572,3.5083 5.3638,7.1875 -0.78979,3.75 -2.7856,7.2241 -8.4595,7.2241 z"
     id="path122" />
  <path
     fill-rule="nonzero"
     fill="#0868ac"
     d="m 190.76486,116.80165 c 0,0 0.62012,-5.4346 0.62012,-5.4346 0,0 0.30883,-1.5478 0.30883,-1.5478 0.448,-2.063 0.72266,-3.5767 -1.4453,-3.5767 h -1.6846 c 0.0696,1.0669 -0.13794,2.2705 -0.41259,3.5425 0,0 -1.4783,7.0166 -1.4783,7.0166 h -3.1995 c 0,0 0.6189,-5.4346 0.6189,-5.4346 0,0 0.30883,-1.5478 0.30883,-1.5478 0.44799,-2.063 0.72143,-3.5767 -1.4429,-3.5767 h -1.377 c 0,0 -2.2705,10.559 -2.2705,10.559 h -3.6816 c 0,0 2.9932,-14.067 2.9932,-14.067 h 2.8894 c 0,0 0.44678,0.85937 0.44678,0.85937 0,0 1.9617,-1.0327 3.5437,-1.0327 1.2036,0 2.0984,0.55176 2.4084,1.2378 0.68726,-0.37842 2.6489,-1.2378 4.0601,-1.2378 4.3994,0 4.2639,3.5767 3.4717,7.2241 0,0 -1.4783,7.0166 -1.4783,7.0166 h -3.1995 z"
     id="path124" />
  <path
     fill-rule="nonzero"
     fill="#0868ac"
     d="m 205.38486,106.07165 c -2.6843,0 -3.5437,1.5112 -4.0247,3.7134 -0.44677,2.2363 -0.23925,3.75 2.4072,3.75 2.7515,0 3.5791,-1.4795 4.0601,-3.75 0.48096,-2.1338 0.34301,-3.7134 -2.4426,-3.7134 z m -2.3389,10.938 c -5.6775,0 -6.123,-3.5425 -5.3662,-7.2241 0.79101,-3.6792 2.7856,-7.1875 8.4619,-7.1875 5.6421,0 6.1572,3.5083 5.365,7.1875 -0.7898,3.75 -2.7856,7.2241 -8.4607,7.2241 z"
     id="path126" />
  <path
     fill-rule="nonzero"
     fill="#0868ac"
     d="m 221.06486,108.86165 c 0.48096,-2.2022 0.34424,-2.6148 -0.7898,-2.6148 h -1.7212 c 0,0 -1.1011,5.1611 -1.1011,5.1611 0,0 -1.6858,5.398 -1.6858,5.398 h -3.1982 c 0,0 2.6135,-12.244 2.6135,-12.244 0,0 0.37963,-1.7896 0.37963,-1.7896 h 2.9236 c 0,0 0.3772,0.82518 0.3772,0.82518 0,0 1.6858,-0.99608 3.3386,-0.99608 3.5071,0 3.2312,2.6465 2.4744,6.2598 h -3.6108 z"
     id="path128" />
  <path
     fill-rule="nonzero"
     fill="#0868ac"
     d="m 233.38486,105.90165 c -1.8555,0 -2.8198,0.96436 -3.197,2.6831 0,0 5.2942,-0.44677 5.2942,-0.44677 0.24292,-1.1694 0,-2.2363 -2.0972,-2.2363 z m -3.7146,5.227 c -0.23925,1.7212 0.4126,2.3047 2.6135,2.3047 h 5.5383 c 0,0 -0.54932,2.6148 -0.54932,2.6148 0,0 -3.3374,0.92774 -5.813,0.92774 -6.1572,0 -6.2256,-3.4717 -5.437,-7.1875 0.79223,-3.6475 2.2034,-7.2559 8.1531,-7.2559 5.7434,0 6.0205,3.4717 4.6094,8.5962 h -9.115 z"
     id="path130" />
  <path
     fill-rule="nonzero"
     fill="#0868ac"
     d="m 241.87486,117.01165 c -1.4453,0 -2.3376,-0.41259 -1.9592,-2.0972 0.34179,-1.7236 1.4087,-2.1338 2.8552,-2.1338 1.3403,0 2.2681,0.41015 1.9263,2.1338 -0.38086,1.6504 -1.4795,2.0972 -2.8223,2.0972 z"
     id="path132" />
</svg>
