<?xml version="1.0" encoding="UTF-8" standalone="no"?>
<svg
   width="136.13698"
   height="114.12054"
   viewBox="0 0 136.13698 114.12054"
   version="1.1"
   preserveAspectRatio="xMidYMid"
   id="svg6"
   sodipodi:docname="knockout-seeklogo.com.svg"
   inkscape:version="1.1.2 (0a00cf5339, 2022-02-04)"
   xmlns:inkscape="http://www.inkscape.org/namespaces/inkscape"
   xmlns:sodipodi="http://sodipodi.sourceforge.net/DTD/sodipodi-0.dtd"
   xmlns="http://www.w3.org/2000/svg"
   xmlns:svg="http://www.w3.org/2000/svg">
  <defs
     id="defs10" />
  <sodipodi:namedview
     id="namedview8"
     pagecolor="#ffffff"
     bordercolor="#666666"
     borderopacity="1.0"
     inkscape:pageshadow="2"
     inkscape:pageopacity="0.0"
     inkscape:pagecheckerboard="0"
     showgrid="false"
     fit-margin-top="0"
     fit-margin-left="0"
     fit-margin-right="0"
     fit-margin-bottom="0"
     inkscape:zoom="1.21875"
     inkscape:cx="114.05128"
     inkscape:cy="-79.589744"
     inkscape:window-width="1920"
     inkscape:window-height="1021"
     inkscape:window-x="0"
     inkscape:window-y="30"
     inkscape:window-maximized="1"
     inkscape:current-layer="g4" />
  <g
     fill-rule="evenodd"
     id="g4"
     transform="translate(0,-9.5889861)">
    <path
       d="M 26.707549,11.104204 C 31.78303,9.3566186 37.21067,9.479874 42.497446,9.7395907 c 0.862788,0.1716772 1.716772,0.3961783 2.597167,0.4798153 2.918512,0.880396 5.753386,2.016107 8.390171,3.561201 3.31469,2.421088 6.299232,5.366012 8.328544,8.96683 0.493021,1.316192 1.025661,2.619177 1.527486,3.930967 0.717523,3.024159 0.620679,6.136358 0.53264,9.222145 -0.290531,3.437945 -1.329398,6.748233 -2.319843,10.036511 -0.528237,1.144514 -0.959631,2.333048 -1.338201,3.534789 -0.695513,1.377819 -1.175329,2.856884 -1.941273,4.199487 1.360211,-1.787203 3.081385,-3.253062 4.58246,-4.91701 2.451902,-2.953727 5.313188,-5.528885 7.914757,-8.350553 3.059375,-3.680054 6.748233,-6.787851 9.781196,-10.494317 5.502473,-5.38362 10.437091,-11.308683 16.098036,-16.538233 0.911209,-0.581061 1.813615,-1.17973 2.711618,-1.787203 2.258216,-1.272172 4.855386,-1.22375 7.368916,-1.003651 1.96768,0.972837 3.90895,2.40348 4.69691,4.534037 0.73073,1.659546 0.40498,3.508377 0.40498,5.260365 -0.65149,1.184132 -1.23256,2.407882 -1.88405,3.592014 -0.31254,0.4446 -0.61627,0.898004 -0.91121,1.35581 -1.83122,1.848831 -3.36751,3.966182 -5.26916,5.748983 -2.16138,2.249412 -4.450405,4.393175 -6.431296,6.809861 -2.980139,3.173827 -6.211191,6.123152 -9.006448,9.464254 -2.236205,2.315441 -4.525234,4.573656 -6.735027,6.915508 -2.363862,2.856884 -5.119501,5.357208 -7.663844,8.051219 0.272922,0.594267 0.545845,1.188534 0.823169,1.782801 0.519434,1.641938 1.043269,3.283876 1.747586,4.859784 0.550247,1.624331 1.052073,3.27067 1.760791,4.842177 0.550248,1.62433 1.052073,3.27067 1.760792,4.842176 0.550247,1.62433 1.052073,3.27067 1.760791,4.837775 0.550248,1.628732 1.052073,3.275072 1.760792,4.842176 0.545845,1.62433 1.060876,3.266268 1.756389,4.837774 0.391776,1.206142 0.796758,2.416686 1.364613,3.561201 0.04842,0.202491 0.140864,0.603071 0.189285,0.80116 0.519434,1.324995 0.937622,2.689606 1.492271,4.005796 0.242109,0.59427 0.519434,1.17533 0.809964,1.75199 1.417437,2.17898 4.107046,3.21345 6.624978,3.25306 130.157704,-0.004 -107.749882,0.004 22.412214,-0.004 0,7.63444 0.35059,12.50362 0.35059,17.17652 -131.487101,0.004 102.09491,0 -29.392184,0.004 -1.593516,0.0484 -3.107797,-0.56785 -4.705715,-0.50622 -1.628732,-0.61628 -3.371915,-1.02126 -4.820166,-2.03372 -1.875243,-1.10489 -2.940522,-3.06378 -4.186282,-4.76734 -0.528237,-1.05207 -1.060877,-2.09534 -1.571506,-3.15182 -0.343354,-0.88479 -0.691111,-1.76959 -1.109299,-2.62358 -0.04402,-0.19808 -0.136461,-0.59426 -0.184883,-0.79235 -0.950827,-2.51353 -1.826821,-5.06228 -2.84808,-7.5538 -0.559051,-1.63313 -1.047671,-3.297079 -1.804811,-4.855379 -0.04842,-0.19809 -0.145265,-0.594268 -0.193687,-0.792357 -0.519434,-1.338201 -0.928818,-2.71602 -1.523085,-4.019006 -0.391776,-1.197338 -0.80116,-2.390274 -1.320593,-3.534789 -0.550248,-1.62433 -1.056475,-3.27067 -1.765194,-4.837774 -0.550247,-1.62433 -1.060876,-3.266268 -1.756389,-4.833372 -0.396178,-1.206143 -0.80116,-2.412285 -1.364613,-3.552397 -0.04842,-0.198089 -0.145266,-0.598669 -0.193687,-0.796758 -0.519434,-1.338202 -0.928818,-2.716021 -1.523085,-4.019007 -0.391776,-1.197338 -0.80116,-2.390274 -1.324996,-3.534788 -0.620679,-1.914861 -1.294181,-3.812114 -2.086537,-5.660945 -0.09684,0.567856 -0.206893,1.135711 -0.316943,1.703566 -0.369766,0.717522 -0.69111,1.457055 -0.968435,2.214195 -0.308139,0.726327 -0.603071,1.457055 -0.871592,2.200989 -0.31254,0.721925 -0.611875,1.457055 -0.884798,2.196588 -0.31254,0.726326 -0.607473,1.461456 -0.880395,2.200989 -0.312541,0.726326 -0.607473,1.457055 -0.884798,2.200989 -0.31254,0.726327 -0.607473,1.461457 -0.871592,2.209793 -0.814366,1.725576 -1.51428,3.499573 -2.187783,5.282375 -0.321344,0.726326 -0.616277,1.457054 -0.884798,2.200989 -0.316942,0.721924 -0.616277,1.457055 -0.884797,2.200989 -0.316943,0.721925 -0.611875,1.457055 -0.880396,2.200989 -0.316942,0.721925 -0.616277,1.452653 -0.884798,2.196588 -0.316942,0.726326 -0.611875,1.457054 -0.880395,2.196587 -0.316943,0.730728 -0.611875,1.461457 -0.880396,2.209793 -0.374168,0.853984 -0.708719,1.721174 -1.052073,2.588363 -0.286129,0.594268 -0.572257,1.188535 -0.853984,1.782802 -1.391025,2.253818 -2.962531,4.454798 -5.242756,5.885448 -0.220099,0.11885 -0.651493,0.36096 -0.86719,0.48421 -1.71237,0.45781 -3.433543,1.22376 -5.242756,0.93763 -0.748337,-0.15848 -1.479065,-0.36537 -2.231803,-0.48862 -1.316192,-0.74394 -2.553148,-1.62874 -3.587613,-2.73803 -0.321344,-0.63389 -0.655895,-1.26337 -1.003651,-1.88405 -0.413786,-2.984543 0.180481,-5.96028 1.439447,-8.676301 0.316942,-0.721924 0.616277,-1.452653 0.8892,-2.196587 0.316942,-0.726326 0.611875,-1.457055 0.880395,-2.200989 0.316943,-0.726327 0.611875,-1.457055 0.880396,-2.200989 0.316942,-0.721925 0.616277,-1.452653 0.884798,-2.196588 0.31254,-0.726326 0.611875,-1.457055 0.880395,-2.196587 0.312541,-0.730728 0.611875,-1.461457 0.884798,-2.200989 0.308139,-0.730729 0.607473,-1.461457 0.880396,-2.20099 0.31254,-0.726326 0.607473,-1.461456 0.884798,-2.200989 0.308138,-0.726326 0.607472,-1.461457 0.871591,-2.209793 1.131309,-2.4475 2.082136,-4.974236 3.068179,-7.483363 0.316943,-0.726327 0.620679,-1.457055 0.8892,-2.20099 0.31254,-0.726326 0.611875,-1.457055 0.880396,-2.200989 0.316942,-0.721924 0.611875,-1.457055 0.880395,-2.196587 0.316943,-0.726327 0.616277,-1.457055 0.884798,-2.200989 0.31254,-0.726327 0.611875,-1.457055 0.880396,-2.20099 0.31254,-0.726326 0.611875,-1.457054 0.884797,-2.200989 0.308139,-0.726326 0.607473,-1.457055 0.880396,-2.196587 0.31254,-0.726327 0.607473,-1.461457 0.880396,-2.205391 1.289779,-3.028562 2.40348,-6.127555 3.244258,-9.314587 0.625081,-2.311039 0.972837,-4.877392 0.08804,-7.162019 -1.377819,-2.385872 -3.688858,-4.168674 -6.382868,-4.793755 -2.817267,-0.396178 -5.76219,-0.180481 -8.390171,0.990446 -0.594268,0.272922 -1.184133,0.559051 -1.751988,0.880395 -4.542842,2.856884 -8.438593,7.298481 -9.574303,12.664492 -0.40058,1.263368 -0.237707,2.614776 -0.449002,3.913359 0.118854,1.765194 0.224501,3.547995 1.122505,5.128305 1.241358,2.086538 3.098993,3.785702 5.299982,4.820167 0.911209,0.396178 1.822419,0.805562 2.78205,1.082886 1.347006,0.704317 2.57956,1.606723 3.622828,2.711619 0.101246,0.237707 0.299335,0.717523 0.396179,0.95523 0.184883,0.466609 0.374168,0.928817 0.576659,1.391025 0.638287,4.177477 -2.218597,8.086434 -5.929465,9.719568 -3.385122,0.981641 -7.091588,0.805562 -10.489915,-0.03521 -0.721926,-0.34336 -1.452654,-0.647096 -2.20099,-0.924421 C 12.361501,69.813391 11.604361,69.381997 10.842819,68.963809 7.3784616,66.617555 4.8737359,63.206022 2.7783941,59.649223 2.3558042,58.592748 1.9596261,57.527469 1.4754085,56.501808 0.30888416,52.429978 -0.21935327,48.204079 0.08438325,43.969375 0.66984639,40.676696 1.1232502,37.313584 2.3602061,34.161767 2.8356198,33.140508 3.2406018,32.088436 3.6631918,31.045167 4.2838707,30.02831 4.9089517,29.011453 5.4812089,27.968184 6.079878,27.09219 6.6697431,26.216196 7.2508042,25.326997 10.15611,21.607325 13.550036,18.266223 17.445786,15.581016 c 0.449002,-0.299334 0.902406,-0.603071 1.347006,-0.915611 1.729977,-0.942024 3.495171,-1.813615 5.269168,-2.667599 0.8892,-0.272923 1.769595,-0.576659 2.645589,-0.893602 z"
       fill="#e42e16"
       id="path2"
       sodipodi:nodetypes="ccccccccccccccccccccccccccccccccccccccccccccccccccccccccccccccccccccccccccccccccccccccccccccccccccccccccccccccccccccccccccccccc" />
  </g>
</svg>
