<?xml version="1.0" encoding="UTF-8" standalone="no"?>
<svg
   width="585.3042"
   height="591.76685"
   viewBox="5.591 3.262 111.16121 112.32403"
   version="1.1"
   id="svg177"
   sodipodi:docname="python-3.svg"
   inkscape:version="1.2.2 (b0a8486541, 2022-12-01)"
   xmlns:inkscape="http://www.inkscape.org/namespaces/inkscape"
   xmlns:sodipodi="http://sodipodi.sourceforge.net/DTD/sodipodi-0.dtd"
   xmlns="http://www.w3.org/2000/svg"
   xmlns:svg="http://www.w3.org/2000/svg">
  <defs
     id="defs181" />
  <sodipodi:namedview
     id="namedview179"
     pagecolor="#ffffff"
     bordercolor="#666666"
     borderopacity="1.0"
     inkscape:showpageshadow="2"
     inkscape:pageopacity="0.0"
     inkscape:pagecheckerboard="0"
     inkscape:deskcolor="#d1d1d1"
     showgrid="false"
     inkscape:zoom="0.32506887"
     inkscape:cx="1248.9661"
     inkscape:cy="347.61864"
     inkscape:window-width="2560"
     inkscape:window-height="1403"
     inkscape:window-x="0"
     inkscape:window-y="0"
     inkscape:window-maximized="1"
     inkscape:current-layer="svg177" />
  <linearGradient
     id="a"
     gradientUnits="userSpaceOnUse"
     x1="-2031.312"
     y1="275.86801"
     x2="-1922.296"
     y2="182.075"
     gradientTransform="matrix(0.5625,0,0,-0.568,1145.5596,163.10737)">
    <stop
       offset="0"
       stop-color="#5a9fd4"
       id="stop154" />
    <stop
       offset="1"
       stop-color="#306998"
       id="stop156" />
  </linearGradient>
  <path
     d="m 60.509596,3.223372 c -4.584,0.021 -8.961,0.412 -12.812,1.094 -11.346,2.005 -13.406,6.2 -13.406,13.938 v 10.219 h 26.812 v 3.406 h -36.875 c -7.792,0 -14.6159997,4.684 -16.7499997,13.594 -2.462,10.213 -2.571,16.586 0,27.25 1.906,7.938 6.4579997,13.594 14.2499997,13.594 h 9.219 v -12.25 c 0,-8.85 7.657,-16.656 16.75,-16.656 h 26.781 c 7.455,0 13.406,-6.138 13.406,-13.625 v -25.533 c 0,-7.266 -6.13,-12.725 -13.406,-13.938 -4.607,-0.766 -9.385,-1.115 -13.969,-1.093 z m -14.5,8.218 c 2.77,0 5.031,2.299 5.031,5.125 0,2.816 -2.262,5.094 -5.031,5.094 -2.779,0 -5.031,-2.277 -5.031,-5.094 0,-2.826 2.252,-5.125 5.031,-5.125 z"
     fill="url(#a)"
     id="path159"
     style="fill:url(#a)" />
  <linearGradient
     id="b"
     gradientUnits="userSpaceOnUse"
     x1="-1880.151"
     y1="125.305"
     x2="-1919.08"
     y2="180.384"
     gradientTransform="matrix(0.5625,0,0,-0.568,1145.5596,163.10737)">
    <stop
       offset="0"
       stop-color="#ffd43b"
       id="stop161" />
    <stop
       offset="1"
       stop-color="#ffe873"
       id="stop163" />
  </linearGradient>
  <path
     d="m 91.228596,31.879372 v 11.906 c 0,9.231 -7.826,17 -16.75,17 h -26.781 c -7.336,0 -13.406,6.278 -13.406,13.625 v 25.531 c 0,7.266998 6.318,11.540998 13.406,13.624998 8.487,2.496 16.626,2.947 26.781,0 6.75,-1.954 13.406,-5.888 13.406,-13.624998 v -10.218 h -26.781 v -3.406 H 101.2906 c 7.793,0 10.696,-5.436 13.406,-13.594 2.8,-8.398 2.681,-16.476 0,-27.25 -1.926,-7.757 -5.604,-13.594 -13.406,-13.594 H 91.228596 Z m -15.063,64.656 c 2.779,0 5.031,2.277 5.031,5.093998 0,2.826 -2.252,5.125 -5.031,5.125 -2.77,0 -5.031,-2.299 -5.031,-5.125 0,-2.815998 2.262,-5.093998 5.031,-5.093998 z"
     fill="url(#b)"
     id="path166"
     style="fill:url(#b)" />
  <radialGradient
     id="c"
     cx="-3393.238"
     cy="376.79099"
     r="29.037001"
     gradientTransform="matrix(0,-0.2399,-1.0547,0,458.797,-680.1)"
     gradientUnits="userSpaceOnUse">
    <stop
       offset="0"
       stop-color="#b8b8b8"
       stop-opacity=".498"
       id="stop170" />
    <stop
       offset="1"
       stop-color="#7f7f7f"
       stop-opacity="0"
       id="stop172" />
  </radialGradient>
</svg>
