<?xml version="1.0" encoding="UTF-8" standalone="no"?>
<!-- Generator: Adobe Illustrator 27.1.1, SVG Export Plug-In . SVG Version: 6.00 Build 0) -->

<svg
   version="1.1"
   id="Layer_1"
   x="0px"
   y="0px"
   viewBox="0 0 268 96.300003"
   xml:space="preserve"
   sodipodi:docname="safe.svg"
   width="268"
   height="96.300003"
   inkscape:version="1.1.2 (0a00cf5339, 2022-02-04)"
   xmlns:inkscape="http://www.inkscape.org/namespaces/inkscape"
   xmlns:sodipodi="http://sodipodi.sourceforge.net/DTD/sodipodi-0.dtd"
   xmlns="http://www.w3.org/2000/svg"
   xmlns:svg="http://www.w3.org/2000/svg"><defs
   id="defs159" /><sodipodi:namedview
   id="namedview157"
   pagecolor="#ffffff"
   bordercolor="#666666"
   borderopacity="1.0"
   inkscape:pageshadow="2"
   inkscape:pageopacity="0.0"
   inkscape:pagecheckerboard="0"
   showgrid="false"
   fit-margin-top="0"
   fit-margin-left="0"
   fit-margin-right="0"
   fit-margin-bottom="0"
   inkscape:zoom="5.6014362"
   inkscape:cx="211.37436"
   inkscape:cy="73.195514"
   inkscape:window-width="1920"
   inkscape:window-height="1021"
   inkscape:window-x="0"
   inkscape:window-y="30"
   inkscape:window-maximized="1"
   inkscape:current-layer="g124" /> <style
   type="text/css"
   id="style2"> .st0{fill:#033947;} </style> <g
   id="g154"
   transform="translate(-5,-5)">  <g
   id="g152"> <g
   id="g150"> <g
   id="g120"> <g
   id="g98"> <g
   id="g92"> <polygon
   class="st0"
   points="81.8,46.5 80.4,37.9 5,99.9 18.2,99.9 "
   id="polygon90" /> </g> <g
   id="g96"> <polygon
   class="st0"
   points="22.7,99.9 35.6,99.9 84,60.5 82.3,49.6 "
   id="polygon94" /> </g> </g> <g
   id="g108"> <g
   id="g102"> <polygon
   class="st0"
   points="131.7,36.1 130.3,26.5 41,99.9 54.3,99.9 "
   id="polygon100" /> </g> <g
   id="g106"> <polygon
   class="st0"
   points="59.3,99.9 70.9,99.9 134.1,50.7 132.3,39.5 "
   id="polygon104" /> </g> </g> <g
   id="g118"> <g
   id="g112"> <polygon
   class="st0"
   points="199.5,16.9 197,5.3 76.3,99.9 93.7,99.9 "
   id="polygon110" /> </g> <g
   id="g116"> <polygon
   class="st0"
   points="98.8,99.9 116.6,99.9 203,32.6 200.3,20.1 "
   id="polygon114" /> </g> </g> </g> <g
   id="g142"> <g
   id="g124"> <path
   class="st0"
   d="m 272.4,38.8 -0.5,2.8 h -14.2 l 0.4,-2.1 c 0.2,-1.5 0.5,-2.9 0.5,-4.3 0,-3.5 -1.5,-6.5 -7.2,-6.5 -6.2,0 -8.8,3.4 -9.5,7.2 0,0.5 -0.1,1 -0.1,1.5 0,11.5 24.9,20.2 24.9,39.3 0,1.3 -0.1,2.7 -0.4,4.2 -2.4,13.3 -10.8,20.4 -28.1,20.4 -11.6,0 -19.2,-5.7 -19.2,-16.9 0,-1.6 0.1,-3.3 0.5,-5.1 l 0.9,-4.6 h 14.1 l -0.6,3.5 c -0.2,1.5 -0.4,2.7 -0.4,3.9 0,5.3 2.8,7.2 7.9,7.2 5.6,0 9.4,-2.7 10.3,-7.7 0.1,-0.6 0.2,-1.3 0.2,-2 0,-13.1 -24.4,-19.9 -24.4,-38.7 0,-1.3 0.1,-2.7 0.4,-4.2 2.3,-13.2 11.5,-19.8 26.9,-19.8 11.6,0 18.2,5.6 18.2,16.4 -0.1,1.7 -0.2,3.5 -0.6,5.5 z"
   id="path122" /> </g>     </g> <g
   id="g148"> <g
   id="g146"> <path
   class="st0"
   d="m 212.8,84.4 c 0,-2.2 0.2,-4.3 0.6,-6.3 l 0.8,-4.6 0.9,-5.1 h 5.1 14.1 2.7 C 230,62 221.3,53.9 221.3,41 c 0,-1.7 0.1,-3.4 0.5,-5.2 C 224.1,23 232,14.8 244.5,12 L 242.9,5 122.1,99.9 h 96.1 c -3.5,-3.9 -5.4,-9.2 -5.4,-15.5 z"
   id="path144" /> </g> </g> </g> </g> </g> </svg>
