<?xml version="1.0" encoding="UTF-8" standalone="no"?>
<!-- Uploaded to: SVG Repo, www.svgrepo.com, Generator: SVG Repo Mixer Tools -->

<svg
   fill="#000000"
   width="685.71436"
   height="530.98523"
   viewBox="0 0 12.000001 9.2922415"
   role="img"
   focusable="false"
   aria-hidden="true"
   version="1.1"
   id="svg4"
   sodipodi:docname="scrum.svg"
   inkscape:version="1.1.2 (0a00cf5339, 2022-02-04)"
   xmlns:inkscape="http://www.inkscape.org/namespaces/inkscape"
   xmlns:sodipodi="http://sodipodi.sourceforge.net/DTD/sodipodi-0.dtd"
   xmlns="http://www.w3.org/2000/svg"
   xmlns:svg="http://www.w3.org/2000/svg">
  <defs
     id="defs8" />
  <sodipodi:namedview
     id="namedview6"
     pagecolor="#ffffff"
     bordercolor="#666666"
     borderopacity="1.0"
     inkscape:pageshadow="2"
     inkscape:pageopacity="0.0"
     inkscape:pagecheckerboard="0"
     showgrid="false"
     inkscape:zoom="0.7875"
     inkscape:cx="342.85714"
     inkscape:cy="265.39683"
     inkscape:window-width="1920"
     inkscape:window-height="1021"
     inkscape:window-x="0"
     inkscape:window-y="30"
     inkscape:window-maximized="1"
     inkscape:current-layer="svg4"
     fit-margin-top="0"
     fit-margin-left="0"
     fit-margin-right="0"
     fit-margin-bottom="0" />
  <path
     d="m 8.4619775,7.3290847 c 0.0339,0.0021 0.07045,0.0064 0.107004,0.0064 0.5175422,5.29e-4 1.0356132,-0.0026 1.5531555,0.0026 0.113361,0.0011 0.147263,-0.03761 0.141436,-0.146204 -0.0074,-0.141436 -0.0016,-0.283403 -0.0016,-0.458212 0.587466,0.432256 1.155331,0.849679 1.738029,1.2787572 -0.57846,0.425899 -1.146326,0.843852 -1.738029,1.279816 0,-0.164745 0,-0.300884 0,-0.437023 0,-0.175869 0,-0.176399 -0.171101,-0.176399 -3.3091945,0 -6.618918,0 -9.92811189,0 -0.159977,0 -0.159977,0 -0.159977,-0.161036 0,-0.349089 0.00477,-0.698178 -0.00265,-1.0467382 -0.00265,-0.113361 0.0339019996,-0.138788 0.14249609963,-0.138258 1.77934729,0.0032 3.55869459,0.0058 5.33804229,0.0011 0.912187,-0.0026 1.632083,-0.380343 2.108306,-1.166455 0.859215,-1.419664 -0.03655,-3.279 -1.682937,-3.518436 -1.2713408,-0.184874 -2.4531579,0.668513 -2.6687561,1.961573 -0.022778,0.13455 -0.024367,0.272808 -0.03761,0.434904 0.208182,-0.02807 0.3967642,-0.05403 0.6102435,-0.08264 -0.3342566,0.646265 -0.6568593,1.270281 -0.9842296,1.902773 -0.5016498,-0.517011 -0.9958835,-1.026077 -1.478993,-1.524019 0.1213071,-0.02013 0.2823436,-0.04344 0.4417909,-0.07681 0.030194,-0.0064 0.074691,-0.05509 0.073632,-0.08317 -0.00901,-0.338495 0.014303,-0.673281 0.080518,-1.005419 0.00212,-0.01007 -0.00265,-0.02172 -0.00583,-0.04132 C 1.6136738,4.0797787 1.3138493,3.9632377 1.0421002,3.7757147 0.37782471,3.3159127 0.03032491,2.4604067 0.19348031,1.6806507 0.37093821,0.83097166 1.0119058,0.19583066 1.8403962,0.03903266 c 0.5371415,-0.101178 1.0350832,-0.0048 1.4975334,0.279165 0.081578,0.05032 0.1313719,0.05774 0.1848741,-0.02966 0.031254,-0.05138 0.078399,-0.0927 0.1324314,-0.155209 0.067275,0.271219 0.1303124,0.524957 0.19282,0.778696 0.021189,0.08529 0.03761,0.17216104 0.062508,0.25638704 0.027016,0.09111 -5.297e-4,0.131902 -0.09694,0.125545 -0.2786355,-0.01907 -0.5578007,-0.03602 -0.8364362,-0.05456 -0.068864,-0.0048 -0.1371989,-0.01218 -0.225663,-0.02066 0.068864,-0.08687 0.1313719,-0.164745 0.1997064,-0.25003004 -0.1504272,-0.114454 -0.3162313,-0.171664 -0.4889217,-0.19974 -0.8348471,-0.136669 -1.57063549,0.50482804 -1.55368429,1.34974004 0.012713,0.648384 0.55938989,1.227903 1.20512509,1.282995 0.083697,0.0069 0.1128314,-0.03549 0.1451447,-0.098 0.4576826,-0.878285 1.1468552,-1.499123 2.084469,-1.822255 2.1692254,-0.74797304 4.4338004,0.592232 4.8517546,2.785825 0.206063,1.08011 -0.02861,2.066458 -0.6838762,2.95057 -0.01801,0.02437 -0.03443,0.05032 -0.05032,0.07628 -0.0032,0.0048 0.0011,0.0143 0.0037,0.03443 z"
     id="path2"
     style="fill:#0193ab;fill-opacity:1" />
</svg>
