<?xml version="1.0" encoding="UTF-8" standalone="no"?>
<svg
   viewBox="0 0 38.13 34"
   width="457.56"
   height="408"
   version="1.1"
   id="svg8"
   sodipodi:docname="spring-boot.svg"
   inkscape:version="1.1.2 (0a00cf5339, 2022-02-04)"
   xmlns:inkscape="http://www.inkscape.org/namespaces/inkscape"
   xmlns:sodipodi="http://sodipodi.sourceforge.net/DTD/sodipodi-0.dtd"
   xmlns="http://www.w3.org/2000/svg"
   xmlns:svg="http://www.w3.org/2000/svg">
  <defs
     id="defs12" />
  <sodipodi:namedview
     id="namedview10"
     pagecolor="#ffffff"
     bordercolor="#666666"
     borderopacity="1.0"
     inkscape:pageshadow="2"
     inkscape:pageopacity="0.0"
     inkscape:pagecheckerboard="0"
     showgrid="false"
     fit-margin-top="0"
     fit-margin-left="0"
     fit-margin-right="0"
     fit-margin-bottom="0"
     inkscape:zoom="0.328125"
     inkscape:cx="155.42857"
     inkscape:cy="1048.381"
     inkscape:window-width="1920"
     inkscape:window-height="1021"
     inkscape:window-x="0"
     inkscape:window-y="30"
     inkscape:window-maximized="1"
     inkscape:current-layer="svg8" />
  <path
     fill="#ffffff"
     d="M 37.23,13.7 31.03,3.2 C 30.47,2.25 29.68,1.47 28.76,0.93 L 28.6,0.65 H 28.26 C 27.39,0.23 26.42,0 25.43,0 H 12.8 c -1,0 -1.96,0.23 -2.83,0.65 H 9.53 L 9.31,1.02 C 8.46,1.56 7.73,2.3 7.2,3.2 L 1,13.7 C 0.43,14.67 0.13,15.74 0.1,16.82 L 0,17 0.1,17.18 c 0.03,1.08 0.33,2.15 0.9,3.12 l 6.2,10.5 c 0.53,0.9 1.26,1.64 2.12,2.18 l 0.21,0.36 H 9.95 C 10.83,33.77 11.79,34 12.8,34 h 12.63 c 1,0 1.97,-0.23 2.85,-0.66 h 0.32 l 0.15,-0.26 c 0.93,-0.55 1.72,-1.32 2.28,-2.28 l 6.2,-10.5 c 0.6,-1.02 0.9,-2.16 0.9,-3.3 0,-1.14 -0.3,-2.28 -0.9,-3.3 z m -22.44,8.37 c 2.66,2.4 6.78,2.18 9.17,-0.48 2.4,-2.66 2.18,-6.78 -0.48,-9.17 -0.62,-0.56 -0.67,-1.51 -0.11,-2.12 0.55,-0.62 1.5,-0.67 2.12,-0.11 3.89,3.5 4.2,9.52 0.7,13.41 -1.87,2.08 -4.46,3.14 -7.06,3.14 -2.27,0 -4.54,-0.81 -6.35,-2.44 -3.89,-3.5 -4.21,-9.52 -0.7,-13.41 0.27,-0.3 0.56,-0.59 0.86,-0.85 0.63,-0.54 1.58,-0.46 2.12,0.16 0.54,0.63 0.47,1.58 -0.16,2.12 -0.21,0.18 -0.41,0.37 -0.6,0.58 -2.39,2.66 -2.17,6.78 0.49,9.17 z m 2.84,-6.57 v -7 c 0,-0.83 0.68,-1.5 1.5,-1.5 0.83,0 1.5,0.67 1.5,1.5 v 7 c 0,0.83 -0.67,1.5 -1.5,1.5 -0.82,0 -1.5,-0.67 -1.5,-1.5 z"
     id="path2"
     sodipodi:nodetypes="cccccsscccccccccccccsscccccscccccccsccccsccsssssss" />
  <path
     fill="#bae0bd"
     d="M 29.528382,2.18504 28.033738,0.91188 10.266429,0.70055 9.327903,1.31659 0.241064,16.78117 l -0.01138,0.21577 -0.0044,0.18029 9.083477,15.51172 1.406133,0.61738 16.204477,0.16025 3.115325,-1.89242 7.993537,-14.60788 z M 26.19,23.6 c -1.87,2.08 -4.46,3.14 -7.06,3.14 -2.27,0 -4.54,-0.81 -6.35,-2.44 -3.89,-3.5 -4.21,-9.52 -0.7,-13.41 0.27,-0.3 0.56,-0.59 0.86,-0.85 0.63,-0.54 1.58,-0.46 2.12,0.16 0.54,0.63 0.47,1.58 -0.16,2.12 -0.21,0.18 -0.41,0.37 -0.6,0.58 -2.39,2.66 -2.17,6.78 0.49,9.17 2.66,2.4 6.78,2.18 9.17,-0.48 2.4,-2.66 2.18,-6.78 -0.48,-9.17 -0.62,-0.56 -0.67,-1.51 -0.11,-2.12 0.55,-0.62 1.5,-0.67 2.12,-0.11 3.89,3.5 4.2,9.52 0.7,13.41 z M 20.63,8.5 v 7 c 0,0.83 -0.67,1.5 -1.5,1.5 -0.82,0 -1.5,-0.67 -1.5,-1.5 v -7 c 0,-0.83 0.68,-1.5 1.5,-1.5 0.83,0 1.5,0.67 1.5,1.5 z"
     id="path4"
     sodipodi:nodetypes="ccccccccccccccsccccscccccccsssssss"
     style="fill:#6db33f;fill-opacity:1" />
  <path
     fill="#5e9c76"
     d="M 37.23,13.7 31.03,3.2 C 30.47,2.25 29.68,1.47 28.76,0.93 28.6,0.82 28.43,0.73 28.26,0.65 27.39,0.23 26.42,0 25.43,0 H 12.8 C 11.8,0 10.84,0.23 9.97,0.65 9.74,0.76 9.52,0.88 9.31,1.02 8.46,1.56 7.73,2.3 7.2,3.2 L 1,13.7 c -0.57,0.97 -0.87,2.04 -0.9,3.12 v 0.36 c 0.03,1.08 0.33,2.15 0.9,3.12 l 6.2,10.5 c 0.53,0.9 1.26,1.64 2.12,2.18 0.2,0.14 0.41,0.25 0.63,0.36 0.88,0.43 1.84,0.66 2.85,0.66 h 12.63 c 1,0 1.97,-0.23 2.85,-0.66 0.16,-0.08 0.32,-0.16 0.47,-0.26 0.93,-0.55 1.72,-1.32 2.28,-2.28 l 6.2,-10.5 c 0.6,-1.02 0.9,-2.16 0.9,-3.3 0,-1.14 -0.3,-2.28 -0.9,-3.3 z M 25.43,33 H 12.8 C 10.86,33 9.05,31.96 8.06,30.3 L 1.86,19.8 c -1.02,-1.73 -1.02,-3.87 0,-5.6 L 8.06,3.7 C 9.05,2.04 10.86,1 12.8,1 h 12.63 c 1.94,0 3.75,1.04 4.74,2.7 l 6.2,10.5 c 1.01,1.73 1.01,3.87 0,5.6 l -6.2,10.5 c -0.99,1.66 -2.8,2.7 -4.74,2.7 z"
     id="path6"
     style="fill:#6db33f;fill-opacity:1" />
</svg>
